:FULLY-SPECIFIED
:DEGREES
248
root 3.86895 16.4251 -2.74023 166.324 -88.7991 -160.758
lowerback 0.00264811 1.15306 -0.829783
upperback 0.751677 1.53793 0.143558
thorax 0.741837 0.7621 0.621191
lowerneck -17.5797 -1.62494 -1.93519
upperneck 20.5562 -3.02678 4.78113
head 9.50475 -1.0805 1.5663
rclavicle -1.78906e-014 5.2181e-015
rhumerus -30.8424 -2.05963 -84.1154
rradius 21.8014
rwrist 29.3964
rhand -25.31 2.16084
rfingers 7.12502
rthumb 1.21221 -27.8155
lclavicle -1.78906e-014 5.2181e-015
lhumerus -29.1137 9.04365 86.6052
lradius 17.2104
lwrist -20.3701
lhand -25.2897 1.82867
lfingers 7.12502
lthumb 1.23181 31.8049
rfemur 7.261 4.99628 27.5665
rtibia 22.7956
rfoot -12.5779 -10.7022
rtoes -27.4235
lfemur -27.2495 -9.9546 -20.5233
ltibia 26.3062
lfoot -6.28351 0.473936
ltoes -8.38641
249
root 3.85312 16.4498 -2.71691 177.728 -88.6883 -172.334
lowerback 0.138755 1.18272 -1.00164
upperback 0.772078 1.5769 0.0658838
thorax 0.683384 0.780836 0.635251
lowerneck -17.533 -1.60281 -1.87467
upperneck 20.4809 -3.00082 4.74924
head 9.46736 -1.06843 1.54824
rclavicle 1.07344e-014 4.07509e-015
rhumerus -31.0331 -2.07209 -84.0516
rradius 21.6947
rwrist 29.309
rhand -25.1929 2.13354
rfingers 7.12502
rthumb 1.32528 -27.8421
lclavicle 1.07344e-014 4.07509e-015
lhumerus -29.2098 8.67829 86.7146
lradius 17.2066
lwrist -20.3206
lhand -25.2967 1.81305
lfingers 7.12502
lthumb 1.22498 31.7893
rfemur 5.99894 3.72566 26.7642
rtibia 25.9178
rfoot -12.0166 -9.29944
rtoes -27.7096
lfemur -26.2659 -9.99122 -20.9746
ltibia 25.7881
lfoot -5.96411 0.376639
ltoes -6.20794
250
root 3.83755 16.4727 -2.69155 186.584 -88.5407 -181.323
lowerback 0.198407 1.15931 -1.1688
upperback 0.785398 1.54537 0.0371359
thorax 0.660591 0.764111 0.698087
lowerneck -17.5546 -1.54387 -1.82518
upperneck 20.5228 -2.90889 4.64262
head 9.47986 -1.03309 1.51548
rclavicle -1.11319e-014 -3.47873e-015
rhumerus -31.1115 -2.25072 -83.826
rradius 21.4262
rwrist 29.699
rhand -24.9204 2.2319
rfingers 7.12502
rthumb 1.58848 -27.7419
lclavicle -1.11319e-014 -3.47873e-015
lhumerus -29.3243 8.42578 86.8649
lradius 17.2432
lwrist -20.1164
lhand -25.2719 1.87982
lfingers 7.12502
lthumb 1.24901 31.8559
rfemur 4.60488 2.44831 25.9411
rtibia 29.1168
rfoot -11.0221 -7.98371
rtoes -28.189
lfemur -25.3311 -10.2027 -21.3787
ltibia 25.2639
lfoot -5.69367 0.52001
ltoes -4.1556
251
root 3.8262 16.4977 -2.66564 193.28 -88.348 -188.073
lowerback 0.25434 1.15588 -1.28344
upperback 0.764922 1.54026 -0.0177144
thorax 0.606915 0.761436 0.704571
lowerneck -17.6227 -1.50805 -1.78889
upperneck 20.5786 -2.85558 4.57692
head 9.50836 -1.01133 1.49393
rclavicle -6.36111e-015 -7.95139e-016
rhumerus -31.2037 -2.26124 -83.696
rradius 21.2965
rwrist 29.819
rhand -24.637 2.29594
rfingers 7.12502
rthumb 1.86213 -27.6757
lclavicle -6.36111e-015 -7.95139e-016
lhumerus -29.4265 7.94498 87.0461
lradius 17.2913
lwrist -19.9305
lhand -25.1659 1.88362
lfingers 7.12502
lthumb 1.35132 31.8591
rfemur 3.04979 1.3581 25.1274
rtibia 32.3576
rfoot -9.81764 -6.71099
rtoes -28.2264
lfemur -24.4608 -10.3885 -21.7629
ltibia 24.6553
lfoot -5.45511 0.620905
ltoes -2.29647
252
root 3.81808 16.5115 -2.64038 199.766 -88.1435 -194.648
lowerback 0.372463 1.12904 -1.47623
upperback 0.744977 1.50244 -0.0520472
thorax 0.51716 0.742185 0.774395
lowerneck -17.6466 -1.43823 -1.74753
upperneck 20.6488 -2.74644 4.46395
head 9.53082 -0.969356 1.46279
rclavicle 4.96962e-015 -9.93923e-016
rhumerus -31.2958 -2.2923 -83.5473
rradius 21.215
rwrist 29.8038
rhand -24.3471 2.31293
rfingers 7.12502
rthumb 2.14215 -27.6561
lclavicle 4.96962e-015 -9.93923e-016
lhumerus -29.5015 7.5629 87.2279
lradius 17.2966
lwrist -19.6837
lhand -25.0366 1.94794
lfingers 7.12502
lthumb 1.47623 31.9226
rfemur 1.46593 0.405034 24.3052
rtibia 35.6628
rfoot -8.28825 -5.62594
rtoes -27.8807
lfemur -23.5897 -10.5821 -22.1981
ltibia 24.0765
lfoot -5.25612 0.695957
ltoes -0.952119
253
root 3.81342 16.5292 -2.61477 208.138 -87.8557 -203.053
lowerback 0.4491 1.10656 -1.74516
upperback 0.701518 1.47038 -0.15937
thorax 0.426661 0.725887 0.812881
lowerneck -17.5914 -1.37897 -1.72733
upperneck 20.6676 -2.66117 4.41851
head 9.52311 -0.934385 1.45525
rclavicle -7.95139e-016 8.19987e-015
rhumerus -31.4347 -2.33169 -83.4349
rradius 21.2002
rwrist 29.9194
rhand -24.3425 2.45335
rfingers 7.12502
rthumb 2.14655 -27.5156
lclavicle -7.95139e-016 8.19987e-015
lhumerus -29.6074 7.2761 87.302
lradius 17.3425
lwrist -19.7557
lhand -24.9883 1.82422
lfingers 7.12502
lthumb 1.5229 31.7985
rfemur -0.256824 -0.342833 23.3384
rtibia 38.9912
rfoot -6.39637 -4.59577
rtoes -26.5012
lfemur -22.7483 -10.7156 -22.7874
ltibia 23.4109
lfoot -5.21771 0.858279
ltoes -0.265172
254
root 3.81525 16.5391 -2.59227 214.857 -87.5023 -209.754
lowerback 0.509804 1.08594 -2.10206
upperback 0.669186 1.44005 -0.255255
thorax 0.354186 0.709938 0.912825
lowerneck -17.6821 -1.32951 -1.66001
upperneck 20.734 -2.58729 4.31068
head 9.55804 -0.90502 1.41669
rclavicle -7.95139e-016 2.34193e-015
rhumerus -31.4888 -2.11184 -83.4384
rradius 21.2276
rwrist 29.6194
rhand -24.319 2.32522
rfingers 7.12502
rthumb 2.16926 -27.6435
lclavicle -7.95139e-016 2.34193e-015
lhumerus -29.5992 6.94459 87.4247
lradius 17.372
lwrist -19.5761
lhand -24.6928 1.76318
lfingers 7.12502
lthumb 1.80826 31.7353
rfemur -2.11226 -1.07777 22.3685
rtibia 42.396
rfoot -4.32871 -3.55111
rtoes -26.0742
lfemur -21.9795 -10.7574 -23.3915
ltibia 22.7166
lfoot -5.2355 0.901747
ltoes 0.0703371
255
root 3.81601 16.5545 -2.57125 221.516 -87.1256 -216.483
lowerback 0.669399 1.05941 -2.56555
upperback 0.66342 1.39744 -0.342752
thorax 0.251517 0.687578 1.07938
lowerneck -17.7302 -1.28917 -1.63715
upperneck 20.7309 -2.51752 4.236
head 9.56198 -0.878193 1.39622
rclavicle -9.93923e-015 -3.75206e-015
rhumerus -31.5433 -2.10737 -83.3435
rradius 21.3526
rwrist 29.5857
rhand -24.3739 2.05207
rfingers 7.12502
rthumb 2.11622 -27.9172
lclavicle -9.93923e-015 -3.75206e-015
lhumerus -29.5757 6.40542 87.6863
lradius 17.4627
lwrist -19.152
lhand -24.5985 1.97713
lfingers 7.12502
lthumb 1.89935 31.9484
rfemur -3.84685 -1.84195 21.3526
rtibia 45.748
rfoot -2.3256 -2.60021
rtoes -25.1963
lfemur -21.0382 -10.8052 -24.0879
ltibia 21.8786
lfoot -5.18249 0.940503
ltoes 0.414006
256
root 3.82319 16.5625 -2.5518 227.051 -86.6455 -222.102
lowerback 0.862687 1.03278 -3.08683
upperback 0.683118 1.35087 -0.461389
thorax 0.156238 0.662807 1.24619
lowerneck -17.78 -1.24091 -1.6345
upperneck 20.6767 -2.43432 4.18975
head 9.54855 -0.843494 1.39053
rclavicle -9.83984e-015 1.4238e-014
rhumerus -31.5015 -2.19355 -83.2379
rradius 21.4087
rwrist 29.6384
rhand -24.5057 2.03592
rfingers 7.12502
rthumb 1.98901 -27.9346
lclavicle -9.83984e-015 1.4238e-014
lhumerus -29.4554 6.22411 87.7608
lradius 17.4258
lwrist -19.1064
lhand -24.5673 1.67513
lfingers 7.12502
lthumb 1.92949 31.6461
rfemur -5.62888 -2.54213 20.3181
rtibia 49.0532
rfoot -0.326956 -1.79965
rtoes -23.5082
lfemur -20.1176 -10.8031 -24.8499
ltibia 21.0497
lfoot -5.17602 0.991032
ltoes 0.383542
257
root 3.82893 16.5741 -2.53458 230.763 -86.17 -225.957
lowerback 1.07596 0.995228 -3.5811
upperback 0.735803 1.28692 -0.56697
thorax 0.0854303 0.628758 1.41162
lowerneck -17.8177 -1.18733 -1.64455
upperneck 20.5906 -2.33889 4.14623
head 9.5215 -0.803979 1.38939
rclavicle 1.2921e-015 9.39258e-015
rhumerus -31.4242 -2.09483 -83.2297
rradius 21.4626
rwrist 29.361
rhand -24.6938 2.06557
rfingers 7.12502
rthumb 1.80733 -27.9065
lclavicle 1.2921e-015 9.39258e-015
lhumerus -29.3097 6.17139 87.7693
lradius 17.3639
lwrist -19.325
lhand -24.5456 1.72305
lfingers 7.12502
lthumb 1.95041 31.6939
rfemur -7.34406 -3.20123 19.3671
rtibia 52.1738
rfoot 1.68594 -1.30719
rtoes -20.6961
lfemur -19.0932 -10.6721 -25.5986
ltibia 20.1766
lfoot -5.10091 0.971832
ltoes 0.768305
258
root 3.83982 16.5831 -2.52265 230.758 -85.8568 -226.192
lowerback 1.43639 0.977852 -3.84588
upperback 0.802477 1.2438 -0.601358
thorax -0.0506494 0.607005 1.51914
lowerneck -17.8329 -1.12267 -1.65097
upperneck 20.5295 -2.23986 4.1358
head 9.49941 -0.759314 1.39974
rclavicle 8.94531e-016 -6.21202e-015
rhumerus -31.3353 -2.27699 -83.1325
rradius 21.487
rwrist 29.4953
rhand -24.8754 2.13788
rfingers 7.12502
rthumb 1.63188 -27.8356
lclavicle 8.94531e-016 -6.21202e-015
lhumerus -29.1497 5.95074 87.8191
lradius 17.3652
lwrist -19.0647
lhand -24.3615 1.79451
lfingers 7.12502
lthumb 2.12822 31.7636
rfemur -8.94237 -3.68244 18.8182
rtibia 55.1051
rfoot 2.81982 -1.0519
rtoes -19.263
lfemur -18.0237 -10.4742 -26.0408
ltibia 19.3701
lfoot -5.1047 0.924285
ltoes 0.873553
259
root 3.85372 16.5877 -2.50877 233.051 -85.5078 -228.701
lowerback 1.75109 0.930502 -4.18536
upperback 0.889337 1.15902 -0.700489
thorax -0.137634 0.562832 1.60431
lowerneck -17.8289 -1.07144 -1.66773
upperneck 20.4116 -2.15943 4.1504
head 9.45503 -0.721566 1.41763
rclavicle -1.799e-014 1.14798e-014
rhumerus -31.1957 -2.515 -83.0739
rradius 21.4909
rwrist 29.4813
rhand -25.2982 2.1865
rfingers 7.12502
rthumb 1.2236 -27.7897
lclavicle -1.799e-014 1.14798e-014
lhumerus -28.9313 5.81537 87.7964
lradius 17.2873
lwrist -19.2153
lhand -24.5103 1.6957
lfingers 7.12502
lthumb 1.98456 31.6662
rfemur -10.4845 -4.27455 18.1215
rtibia 57.7867
rfoot 3.03718 -1.38422
rtoes -18.2675
lfemur -17.0339 -10.2716 -26.6529
ltibia 18.654
lfoot -5.11365 0.742393
ltoes 1.22121
